<?xml version="1.0" standalone="no"?>
<!DOCTYPE svg PUBLIC "-//W3C//DTD SVG 20010904//EN"
 "http://www.w3.org/TR/2001/REC-SVG-20010904/DTD/svg10.dtd">
<svg version="1.0" xmlns="http://www.w3.org/2000/svg"
 width="500.000000pt" height="500.000000pt" viewBox="0 0 500.000000 500.000000"
 preserveAspectRatio="xMidYMid meet">
<metadata>
Created by potrace 1.14, written by Peter Selinger 2001-2017
</metadata>
<g transform="translate(0.000000,500.000000) scale(0.100000,-0.100000)"
fill="#000000" stroke="none">
<path d="M0 2500 l0 -2500 2500 0 2500 0 0 2500 0 2500 -2500 0 -2500 0 0
-2500z m2204 1816 c-83 -31 -128 -60 -202 -131 -142 -134 -209 -320 -219 -607
-3 -82 -8 -148 -11 -148 -2 0 -35 23 -72 50 -80 59 -186 169 -235 243 l-35 53
16 54 c45 156 184 319 337 396 124 63 302 109 432 112 l50 1 -61 -23z m411
-326 l59 -60 91 0 c79 0 92 2 103 20 30 48 108 -2 84 -54 -6 -13 -19 -25 -29
-28 -23 -6 -63 8 -63 22 0 6 -37 10 -98 10 l-98 0 -59 60 -59 60 -298 0 c-260
0 -297 2 -292 15 5 13 48 15 303 15 l297 0 59 -60z m-170 -200 l59 -60 397 0
c344 0 398 2 403 15 9 25 63 19 82 -10 15 -23 15 -27 0 -50 -20 -30 -56 -33
-81 -5 -18 19 -31 20 -414 20 l-397 0 -59 60 -59 60 -253 0 c-220 0 -252 2
-247 15 5 13 43 15 258 15 l252 0 59 -60z m435 -275 l74 -75 353 0 c340 0 354
1 373 20 24 24 47 25 72 3 26 -23 23 -59 -8 -79 -24 -16 -26 -16 -54 5 -29 21
-37 21 -387 21 l-359 0 -74 75 -74 75 -226 0 -226 0 -34 -35 -34 -35 -218 0
c-187 0 -218 2 -218 15 0 13 30 15 213 15 l213 0 34 35 34 35 236 0 236 0 74
-75z m-94 -80 c15 -23 15 -27 0 -50 -19 -28 -57 -33 -76 -10 -10 12 -42 15
-169 15 l-157 0 -54 -55 -54 -55 -213 0 c-183 0 -213 2 -213 15 0 13 30 15
208 15 l208 0 54 55 54 55 161 0 c149 0 161 1 173 20 17 28 58 26 78 -5z m408
-207 c8 -22 6 -32 -9 -48 -23 -25 -47 -26 -70 0 -16 18 -31 20 -159 20 l-142
0 -64 -65 -64 -65 -397 0 c-344 0 -398 2 -403 15 -5 13 43 15 397 15 l403 0
64 65 64 65 142 0 c116 0 144 3 154 16 22 25 73 14 84 -18z m-1654 -968 l0
-30 -100 0 -100 0 0 -50 0 -50 75 0 c73 0 75 -1 75 -25 0 -24 -2 -25 -75 -25
l-75 0 0 -75 c0 -73 -1 -75 -25 -75 l-25 0 0 180 0 180 125 0 125 0 0 -30z
m778 -27 l3 -53 50 0 c46 0 49 -2 49 -25 0 -23 -3 -25 -50 -25 l-50 0 0 -75 0
-75 50 0 c47 0 50 -2 50 -25 0 -24 -2 -25 -75 -25 l-75 0 0 100 0 100 -25 0
c-34 0 -37 47 -2 52 19 3 22 10 25 56 3 48 5 53 25 50 19 -3 22 -10 25 -55z
m-518 -135 c0 -105 10 -118 92 -118 l58 0 0 100 0 100 30 0 30 0 0 -125 0
-125 -97 0 c-96 0 -98 0 -130 32 -33 32 -33 33 -33 125 0 93 0 93 25 93 25 0
25 -1 25 -82z m880 0 c0 -105 10 -118 92 -118 l58 0 0 100 0 100 30 0 30 0 0
-125 0 -125 -97 0 c-96 0 -98 0 -130 32 -33 32 -33 33 -33 125 0 93 0 93 25
93 25 0 25 -1 25 -82z m470 55 l0 -27 28 27 c22 21 38 27 75 27 43 0 47 -2 47
-25 0 -21 -5 -25 -32 -25 -24 0 -43 -10 -75 -42 -41 -40 -43 -45 -43 -100 0
-55 -1 -58 -25 -58 l-25 0 0 125 0 125 25 0 c20 0 25 -5 25 -27z m618 -45 l-3
-73 -102 -3 c-102 -3 -103 -3 -103 -27 0 -25 0 -25 105 -25 l105 0 0 -25 0
-25 -130 0 -130 0 0 125 0 125 130 0 131 0 -3 -72z m-2488 -688 c0 -25 -4 -30
-25 -30 l-25 0 0 -125 0 -125 25 0 c20 0 25 -5 25 -25 0 -24 -2 -25 -75 -25
-73 0 -75 1 -75 25 0 20 5 25 25 25 l25 0 0 125 0 125 -25 0 c-21 0 -25 5 -25
30 l0 30 75 0 75 0 0 -30z m1245 0 c0 -18 -6 -26 -23 -28 -24 -4 -38 18 -28
44 3 9 15 14 28 12 17 -2 23 -10 23 -28z m777 -22 l3 -53 103 -3 102 -3 0
-124 0 -125 -25 0 -25 0 0 100 0 100 -80 0 -80 0 0 -100 0 -100 -25 0 -25 0 0
173 c0 96 3 177 7 180 3 4 14 7 24 7 15 0 19 -10 21 -52z m518 -3 l0 -55 50 0
c47 0 50 -2 50 -25 0 -23 -3 -25 -50 -25 l-50 0 0 -75 0 -75 50 0 c47 0 50 -2
50 -25 0 -24 -2 -25 -75 -25 l-75 0 0 100 0 100 -25 0 c-20 0 -25 5 -25 25 0
20 5 25 25 25 24 0 25 3 25 55 0 52 1 55 25 55 24 0 25 -3 25 -55z m-2103 -87
c33 -32 33 -33 33 -125 0 -93 0 -93 -25 -93 -25 0 -25 1 -25 78 0 108 -11 122
-96 122 l-64 0 0 -100 0 -100 -25 0 -25 0 0 125 0 125 97 0 c96 0 98 0 130
-32z m493 7 l0 -25 -100 0 -100 0 0 -25 0 -25 100 0 100 0 0 -75 0 -75 -125 0
-125 0 0 25 0 25 100 0 100 0 0 25 0 25 -100 0 -100 0 0 75 0 75 125 0 125 0
0 -25z m320 -75 l0 -100 25 0 c20 0 25 -5 25 -25 0 -24 -3 -25 -55 -25 l-55 0
0 100 0 100 -25 0 c-20 0 -25 5 -25 25 0 24 3 25 55 25 l55 0 0 -100z m510
-75 l0 -175 -125 0 -125 0 0 25 0 25 100 0 100 0 0 25 0 25 -100 0 -100 0 0
125 0 125 125 0 125 0 0 -175z m-1730 -365 c0 -5 -9 -10 -20 -10 -18 0 -20 -7
-20 -55 0 -30 -4 -55 -10 -55 -5 0 -10 23 -10 51 0 42 -3 52 -20 56 -37 10
-20 23 30 23 28 0 50 -4 50 -10z m250 1 c0 -6 -15 -11 -32 -13 -45 -4 -45 -32
0 -36 39 -4 33 -22 -9 -22 -19 0 -29 -5 -29 -15 0 -10 10 -15 34 -15 19 0 38
-4 41 -10 4 -6 -13 -10 -44 -10 l-51 0 0 65 0 65 45 0 c25 0 45 -4 45 -9z
m266 -7 c18 -15 18 -15 -9 -9 -37 7 -67 -10 -67 -39 0 -33 23 -49 60 -41 31 7
43 -8 14 -19 -50 -19 -94 9 -94 60 0 54 55 81 96 48z m204 -14 c0 -28 3 -30
35 -30 32 0 35 2 35 30 0 17 5 30 10 30 6 0 10 -28 10 -65 0 -37 -4 -65 -10
-65 -5 0 -10 11 -10 25 0 22 -4 25 -35 25 -31 0 -35 -3 -35 -25 0 -14 -4 -25
-10 -25 -6 0 -10 28 -10 65 0 37 4 65 10 65 6 0 10 -13 10 -30z m322 -16 l33
-47 3 47 c5 70 22 55 22 -19 0 -78 -12 -83 -55 -22 l-30 42 -3 -42 c-5 -68
-22 -50 -22 22 0 36 4 65 9 65 6 0 25 -21 43 -46z m321 35 c28 -15 37 -28 37
-56 0 -52 -72 -82 -112 -46 -26 23 -24 78 4 97 27 19 42 20 71 5z m227 -44 c0
-54 0 -55 30 -55 17 0 30 -4 30 -10 0 -5 -18 -10 -40 -10 l-40 0 0 65 c0 37 4
65 10 65 6 0 10 -25 10 -55z m325 30 c30 -29 31 -45 4 -79 -25 -32 -70 -35
-99 -6 -28 28 -25 64 6 89 35 27 59 26 89 -4z m281 9 c18 -15 18 -15 -9 -9
-36 7 -67 -10 -67 -38 0 -29 18 -47 47 -47 16 0 23 6 23 20 0 11 5 20 10 20
16 0 11 -47 -6 -54 -33 -13 -63 -5 -83 20 -27 34 -26 50 4 79 28 29 53 32 81
9z m213 -15 l19 -31 18 31 c10 17 22 31 26 31 12 0 10 -7 -12 -50 -11 -22 -20
-48 -20 -60 0 -11 -4 -20 -10 -20 -5 0 -10 7 -10 15 0 9 -11 38 -25 65 -28 54
-16 69 14 19z"/>
<path d="M3560 2105 c0 -24 2 -25 75 -25 73 0 75 1 75 25 0 24 -2 25 -75 25
-73 0 -75 -1 -75 -25z"/>
<path d="M2840 1215 l0 -75 75 0 75 0 0 75 0 75 -75 0 -75 0 0 -75z"/>
<path d="M2618 779 c-21 -12 -24 -49 -6 -67 39 -39 100 17 63 58 -20 22 -32
24 -57 9z"/>
<path d="M3145 766 c-8 -13 -13 -31 -9 -40 8 -22 50 -31 69 -16 21 18 19 57
-4 70 -29 15 -39 13 -56 -14z"/>
</g>
</svg>
